<svg width="20" height="20" viewBox="0 0 20 20" fill="none" xmlns="http://www.w3.org/2000/svg">
<path d="M15.139 11.9827C14.5793 11.8623 14.1365 12.1221 13.7444 12.3491C13.3428 12.583 12.5793 13.2024 12.1416 13.0439C9.9009 12.1213 7.79344 10.16 6.88115 7.91031C6.72037 7.46331 7.33687 6.69493 7.56902 6.28864C7.7943 5.89535 8.04881 5.44836 7.93273 4.88441C7.82783 4.37764 6.47101 2.65115 5.99122 2.17903C5.6748 1.86717 5.35065 1.69565 5.01789 1.66793C3.76683 1.61422 2.36959 3.28353 2.12454 3.68289C1.51062 4.53444 1.51406 5.66752 2.13486 7.04144C3.63097 10.7318 9.28956 16.3011 12.9937 17.8534C13.6773 18.1731 14.3024 18.3333 14.8639 18.3333C15.4133 18.3333 15.9026 18.18 16.323 17.8759C16.6403 17.6932 18.378 16.2266 18.3325 14.9419C18.3049 14.6144 18.1338 14.287 17.826 13.9699C17.3574 13.4857 15.642 12.0884 15.139 11.9827" fill="white"/>
</svg>
